P2
# Created by GIMP version 2.10.36 PNM plug-in
10 50
255
0
0
0
255
255
255
255
0
0
0
0
0
0
255
255
255
255
0
0
0
0
0
0
255
255
255
255
0
0
0
0
0
0
255
255
255
255
0
0
0
0
0
0
255
255
255
255
0
0
0
0
0
0
255
255
255
255
0
0
0
0
0
0
255
255
255
255
0
0
0
0
0
0
255
255
255
255
0
0
0
0
0
0
255
255
255
255
0
0
0
0
0
0
255
255
255
255
0
0
0
0
0
0
255
255
255
255
0
0
0
0
0
0
255
255
255
255
0
0
0
0
0
0
255
255
255
255
0
0
0
0
0
0
255
255
255
255
0
0
0
0
0
0
255
255
255
255
0
0
0
0
0
0
255
255
255
255
0
0
0
0
0
0
255
255
255
255
0
0
0
0
0
0
255
255
255
255
0
0
0
0
0
0
255
255
255
255
0
0
0
0
0
0
255
255
255
255
0
0
0
0
0
0
255
255
255
255
0
0
0
0
0
0
255
255
255
255
0
0
0
0
0
0
255
255
255
255
0
0
0
0
0
0
255
255
255
255
0
0
0
0
0
0
255
255
255
255
0
0
0
0
0
0
255
255
255
255
0
0
0
0
0
0
255
255
255
255
0
0
0
0
0
0
255
255
255
255
0
0
0
0
0
0
255
255
255
255
0
0
0
0
0
0
255
255
255
255
0
0
0
0
0
0
255
255
255
255
0
0
0
0
0
0
255
255
255
255
0
0
0
0
0
0
255
255
255
255
0
0
0
0
0
0
255
255
255
255
0
0
0
0
0
0
255
255
255
255
0
0
0
0
0
0
255
255
255
255
0
0
0
0
0
0
255
255
255
255
0
0
0
0
0
0
255
255
255
255
0
0
0
0
0
0
255
255
255
255
0
0
0
0
0
0
255
255
255
255
0
0
0
0
0
0
255
255
255
255
0
0
0
0
0
0
255
255
255
255
0
0
0
0
0
0
255
255
255
255
0
0
0
255
255
255
255
255
255
255
255
255
255
255
255
255
255
255
255
255
255
255
255
255
255
255
255
255
255
255
255
255
255
255
255
255
255
255
255
255
255
255
255
255
255
255
255
255
255
255
255
255
255
255
255
255
255
255
255
255
255
255
255
255
255
255
255
255
255
255
255
255
255
